<svg xmlns="http://www.w3.org/2000/svg" viewBox="0 0 230 53.02"><g id="Layer_2" data-name="Layer 2"><g id="Layer_1-2" data-name="Layer 1"><g id="Layer_2-2" data-name="Layer 2"><g id="Layer_1-2-2" data-name="Layer 1-2"><g style="isolation:isolate"><text transform="translate(0 50.79)" style="isolation:isolate;font-size:12.35632610321045px;fill:#f04f53;font-family:Lato-Bold, Lato;font-weight:700;letter-spacing:-0.009009807937253653em">F</text><text transform="translate(6.81 50.79)" style="isolation:isolate;font-size:12.35632610321045px;fill:#f04f53;font-family:Lato-Bold, Lato;font-weight:700;letter-spacing:0.0050186210878562015em">r</text><text transform="translate(11.93 50.79)" style="isolation:isolate;font-size:12.35632610321045px;fill:#f04f53;font-family:Lato-Bold, Lato;font-weight:700;letter-spacing:0.01896801671000769em">amework for Success</text></g><path d="M16.39,18.82H7.16v3.53h8.49V28H7.16v4.4h9.56v5.67H.81v-25H16.39Z" style="fill:#fff"></path><path d="M32.67,30.23l-4.78,7.84H21.23v-1l8.05-12.26L22.08,14V13h6.53l4.06,6.48h.18L37,13.12h6.42v1l-7.2,10.77,8.09,12.26v1h-6.7l-4.75-7.84Z" style="fill:#fff"></path><path d="M49.73,38.07v-25h11c12,0,12,18.57,0,18.57h-4.6V38Zm11-19.25H56.16V26h4.57c3.44,0,3.66-7.14,0-7.18Z" style="fill:#fff"></path><path d="M89,34.94H79.13l-1.46,3.13H71.43v-.92L82.66,12.8H85.4L96.67,37.15v.92H90.43Zm-5-12-2.8,6.54h5.7Z" style="fill:#fff"></path><path d="M108.31,25.81V38.07h-6.59V13H104l12.62,12.33V13.12h6.53v25H120.9Z" style="fill:#fff"></path><path d="M140.7,38.07h-9.41v-25h9.41C157,13.19,157,38,140.7,38.07Zm-3-5.81h3c8,0,8-13.33,0-13.33h-3Z" style="fill:#fff"></path><path d="M173,29.66V13.12h6.1V29.77c0,5.49-4.74,8.66-9.88,8.66s-9.91-3.17-9.91-8.66V13.12h6.1V29.66c0,2,2,3,3.81,3S173,31.69,173,29.66Z" style="fill:#fff"></path><path d="M199.25,30.73c0-1.75-2.07-2.14-4.56-2.28-5.42-.4-9-2.25-9.06-7.67-.22-10.77,19.18-10.77,19,0h-6.06c0-3.32-6.71-3-6.92-.07-.14,1.89,1.71,2.28,4,2.53,4.95.54,9.8,1.29,9.8,7.52,0,10.49-20.32,10.66-20.18-.32h6.17C191.44,33.62,199.25,33.65,199.25,30.73Z" style="fill:#fff"></path><polygon points="216.19 1.1 216.19 19.56 209.86 19.56 209.86 7.44 197.75 7.44 197.75 1.1 216.19 1.1" style="fill:#f04e53"></polygon><text transform="translate(218.37 6.57)" style="isolation:isolate;font-size:7.626716136932373px;fill:#fff;font-family:Lato-Bold, Lato;font-weight:700">TM</text></g></g></g></g></svg>