<svg xmlns="http://www.w3.org/2000/svg" viewBox="0 0 228.63 49.83"><g id="Layer_2" data-name="Layer 2"><g id="Layer_1-2" data-name="Layer 1"><g style="isolation:isolate"><g style="isolation:isolate"><path d="M5.73,40.8v1.32h-4v2.65H5.11V46.1H1.77v3.63H.09V40.8Z" style="fill:#f04f53"></path></g><g style="isolation:isolate"><path d="M6.82,49.73V43.4h.89a.47.47,0,0,1,.33.08.52.52,0,0,1,.12.3l.09.76a3,3,0,0,1,.8-.92,1.68,1.68,0,0,1,1-.34,1.38,1.38,0,0,1,.78.21l-.2,1.15a.22.22,0,0,1-.08.15.23.23,0,0,1-.17.05,1,1,0,0,1-.25,0,1.63,1.63,0,0,0-.43,0,1.24,1.24,0,0,0-.81.27,2,2,0,0,0-.58.77v3.94Z" style="fill:#f04f53"></path></g><g style="isolation:isolate"><path d="M16.9,49.73h-.68a.77.77,0,0,1-.34-.06.38.38,0,0,1-.19-.26L15.56,49a5.31,5.31,0,0,1-.48.38,2.82,2.82,0,0,1-.48.27,2.88,2.88,0,0,1-.52.17,3.89,3.89,0,0,1-.62,0,2.21,2.21,0,0,1-.74-.11,1.55,1.55,0,0,1-.58-.32,1.47,1.47,0,0,1-.38-.54,1.89,1.89,0,0,1-.14-.75,1.43,1.43,0,0,1,.19-.71,1.72,1.72,0,0,1,.63-.63,3.83,3.83,0,0,1,1.16-.47,7.67,7.67,0,0,1,1.81-.19v-.37a1.48,1.48,0,0,0-.26-1,1,1,0,0,0-.79-.31,1.78,1.78,0,0,0-.61.09,2.5,2.5,0,0,0-.43.19L13,45a.66.66,0,0,1-.34.08.43.43,0,0,1-.27-.08.52.52,0,0,1-.17-.19l-.28-.49a3.76,3.76,0,0,1,2.64-1,2.57,2.57,0,0,1,1,.18,2.13,2.13,0,0,1,.74.51,2.19,2.19,0,0,1,.46.77,3.12,3.12,0,0,1,.15,1Zm-3-.95a2,2,0,0,0,.43,0,1.47,1.47,0,0,0,.37-.13,1.36,1.36,0,0,0,.34-.21,2.86,2.86,0,0,0,.33-.29V47.05a5.87,5.87,0,0,0-1.11.08,2.94,2.94,0,0,0-.72.22.88.88,0,0,0-.39.3.73.73,0,0,0-.11.38.67.67,0,0,0,.24.58A1.06,1.06,0,0,0,13.94,48.78Z" style="fill:#f04f53"></path><path d="M18.64,49.73V43.4h.93a.37.37,0,0,1,.39.27l.1.47c.11-.12.23-.23.35-.34a2,2,0,0,1,.39-.26,1.7,1.7,0,0,1,.44-.18,2.2,2.2,0,0,1,.53-.06,1.46,1.46,0,0,1,1,.32,2,2,0,0,1,.58.86,1.91,1.91,0,0,1,.37-.54,2.18,2.18,0,0,1,.49-.37,2.49,2.49,0,0,1,.56-.21,3.05,3.05,0,0,1,.6-.06,2.5,2.5,0,0,1,.94.16,1.63,1.63,0,0,1,.68.47,2,2,0,0,1,.43.75,3.54,3.54,0,0,1,.14,1v4H26v-4a1.34,1.34,0,0,0-.27-.91,1,1,0,0,0-.78-.31,1.18,1.18,0,0,0-.43.08,1.11,1.11,0,0,0-.36.23,1,1,0,0,0-.23.38,1.47,1.47,0,0,0-.09.53v4H22.33v-4a1.4,1.4,0,0,0-.26-.93,1,1,0,0,0-.76-.29,1.22,1.22,0,0,0-.61.17,2.18,2.18,0,0,0-.54.44v4.64Z" style="fill:#f04f53"></path><path d="M31.9,43.3a3,3,0,0,1,1.1.19,2.41,2.41,0,0,1,.87.56,2.57,2.57,0,0,1,.57.9,3.55,3.55,0,0,1,.2,1.22,2.33,2.33,0,0,1,0,.29.48.48,0,0,1,0,.18.24.24,0,0,1-.11.09.4.4,0,0,1-.17,0H30.37a2.18,2.18,0,0,0,.53,1.43,1.64,1.64,0,0,0,1.21.46,2.06,2.06,0,0,0,.64-.09,3.53,3.53,0,0,0,.47-.19l.35-.19a.57.57,0,0,1,.29-.09.27.27,0,0,1,.16,0,.29.29,0,0,1,.12.1l.44.56a2.42,2.42,0,0,1-.56.5,3.35,3.35,0,0,1-.66.32,4.2,4.2,0,0,1-.7.17,5.6,5.6,0,0,1-.69,0,3.53,3.53,0,0,1-1.23-.22,2.89,2.89,0,0,1-1-.65,3.08,3.08,0,0,1-.66-1.06,4.2,4.2,0,0,1-.24-1.47,3.51,3.51,0,0,1,.21-1.22,3.07,3.07,0,0,1,.6-1,3,3,0,0,1,1-.67A3.25,3.25,0,0,1,31.9,43.3Zm0,1.09a1.42,1.42,0,0,0-1.05.38,1.84,1.84,0,0,0-.48,1.07h2.87a2,2,0,0,0-.08-.56,1.36,1.36,0,0,0-.25-.46,1.12,1.12,0,0,0-.42-.32A1.55,1.55,0,0,0,31.93,44.39Z" style="fill:#f04f53"></path><path d="M35.34,43.4h1.22a.47.47,0,0,1,.29.08.35.35,0,0,1,.14.2l.91,3.38c.05.19.09.37.12.55l.09.53.15-.53c.05-.18.1-.36.16-.55l1-3.39a.45.45,0,0,1,.15-.21.45.45,0,0,1,.26-.08h.67a.49.49,0,0,1,.28.08.45.45,0,0,1,.15.21l1,3.46c0,.17.1.35.14.51s.09.34.13.51l.09-.54c0-.17.08-.36.14-.55l.94-3.38a.35.35,0,0,1,.14-.2.44.44,0,0,1,.28-.08H45l-2,6.33H41.79c-.13,0-.22-.09-.28-.27L40.37,45.8c0-.12-.07-.24-.1-.36a2.61,2.61,0,0,1-.08-.36c0,.12,0,.24-.08.36s-.06.25-.1.37l-1.16,3.65a.33.33,0,0,1-.33.27H37.35Z" style="fill:#f04f53"></path><path d="M48.83,43.3a3.57,3.57,0,0,1,1.29.22,2.9,2.9,0,0,1,1,.65,2.7,2.7,0,0,1,.63,1,4.11,4.11,0,0,1,0,2.71,2.7,2.7,0,0,1-.63,1,2.65,2.65,0,0,1-1,.66,3.73,3.73,0,0,1-2.58,0,2.61,2.61,0,0,1-1-.66,2.85,2.85,0,0,1-.64-1,4.28,4.28,0,0,1,0-2.71,2.78,2.78,0,0,1,1.63-1.68A3.57,3.57,0,0,1,48.83,43.3Zm0,5.35A1.32,1.32,0,0,0,50,48.12a2.6,2.6,0,0,0,.38-1.56A2.64,2.64,0,0,0,50,45a1.33,1.33,0,0,0-1.17-.54,1.34,1.34,0,0,0-1.18.54,3.32,3.32,0,0,0,0,3.12A1.36,1.36,0,0,0,48.83,48.65Z" style="fill:#f04f53"></path><path d="M53.38,49.73V43.4h.9a.47.47,0,0,1,.33.08.52.52,0,0,1,.12.3l.09.76a3,3,0,0,1,.8-.92,1.68,1.68,0,0,1,1-.34,1.32,1.32,0,0,1,.77.21l-.19,1.15a.27.27,0,0,1-.08.15.23.23,0,0,1-.17.05.91.91,0,0,1-.25,0,1.63,1.63,0,0,0-.43,0,1.28,1.28,0,0,0-.82.27,2.06,2.06,0,0,0-.57.77v3.94Z" style="fill:#f04f53"></path><path d="M60.21,40.55v5.26h.29a.55.55,0,0,0,.24,0,.63.63,0,0,0,.18-.16l1.58-2a.77.77,0,0,1,.22-.19A.57.57,0,0,1,63,43.4h1.39l-2,2.35c-.07.09-.14.16-.21.24l-.24.19a1.51,1.51,0,0,1,.23.21,3.15,3.15,0,0,1,.19.27l2.12,3.07H63.16a.67.67,0,0,1-.3-.06.57.57,0,0,1-.23-.21L61,47.06a.47.47,0,0,0-.18-.19.72.72,0,0,0-.28,0h-.35v2.9H58.69V40.55Z" style="fill:#f04f53"></path><path d="M68.61,49.73V44.54l-.55-.08a.52.52,0,0,1-.29-.13.32.32,0,0,1-.11-.26v-.62h1V43a2.67,2.67,0,0,1,.16-1,2.08,2.08,0,0,1,.47-.74,1.93,1.93,0,0,1,.74-.46,2.86,2.86,0,0,1,1-.16,3,3,0,0,1,.82.11l0,.77a.23.23,0,0,1-.17.22,1.25,1.25,0,0,1-.36,0,1.77,1.77,0,0,0-.48.05.82.82,0,0,0-.36.21.84.84,0,0,0-.23.38,2,2,0,0,0-.08.59v.42h1.65v1.09h-1.6v5.19Z" style="fill:#f04f53"></path><path d="M75.61,43.3a3.57,3.57,0,0,1,1.29.22,2.9,2.9,0,0,1,1,.65,3,3,0,0,1,.63,1,4.28,4.28,0,0,1,0,2.71,3,3,0,0,1-.63,1,2.65,2.65,0,0,1-1,.66,3.57,3.57,0,0,1-1.29.23,3.49,3.49,0,0,1-1.29-.23,2.73,2.73,0,0,1-1-.66,3,3,0,0,1-.63-1,4.11,4.11,0,0,1,0-2.71,2.72,2.72,0,0,1,1.63-1.68A3.49,3.49,0,0,1,75.61,43.3Zm0,5.35a1.34,1.34,0,0,0,1.17-.53,2.68,2.68,0,0,0,.38-1.56A2.72,2.72,0,0,0,76.78,45a1.56,1.56,0,0,0-2.36,0,3.39,3.39,0,0,0,0,3.12A1.38,1.38,0,0,0,75.61,48.65Z" style="fill:#f04f53"></path><path d="M80.16,49.73V43.4h.9a.46.46,0,0,1,.32.08.47.47,0,0,1,.13.3l.09.76a2.91,2.91,0,0,1,.8-.92,1.63,1.63,0,0,1,1-.34,1.35,1.35,0,0,1,.78.21L84,44.64a.22.22,0,0,1-.08.15.21.21,0,0,1-.16.05,1,1,0,0,1-.26,0,1.55,1.55,0,0,0-.42,0,1.28,1.28,0,0,0-.82.27,1.87,1.87,0,0,0-.57.77v3.94Z" style="fill:#f04f53"></path><path d="M92.94,42.43a.52.52,0,0,1-.16.19.46.46,0,0,1-.21.05.54.54,0,0,1-.28-.09c-.1-.07-.23-.14-.37-.22a2.49,2.49,0,0,0-.49-.21,2.18,2.18,0,0,0-.66-.1,1.8,1.8,0,0,0-.6.09,1.15,1.15,0,0,0-.44.23,1,1,0,0,0-.26.36,1.06,1.06,0,0,0-.09.45.77.77,0,0,0,.18.52,1.46,1.46,0,0,0,.47.36,4.11,4.11,0,0,0,.66.27l.75.25a7.12,7.12,0,0,1,.76.31,2.31,2.31,0,0,1,.66.44,2,2,0,0,1,.47.66,2.24,2.24,0,0,1,.17.95,3,3,0,0,1-.2,1.13,2.6,2.6,0,0,1-.61.92,2.84,2.84,0,0,1-1,.62,3.58,3.58,0,0,1-1.32.22,4,4,0,0,1-.84-.08,5.16,5.16,0,0,1-.79-.24,4.34,4.34,0,0,1-.71-.37,3.09,3.09,0,0,1-.59-.48l.48-.8a.7.7,0,0,1,.16-.14.43.43,0,0,1,.22-.06.61.61,0,0,1,.33.12l.42.29a4.49,4.49,0,0,0,.58.28,2.3,2.3,0,0,0,.79.12,1.64,1.64,0,0,0,1.1-.33,1.22,1.22,0,0,0,.39-1,.92.92,0,0,0-.17-.57,1.48,1.48,0,0,0-.47-.38,3.37,3.37,0,0,0-.66-.25l-.76-.23a7.81,7.81,0,0,1-.75-.3,2.57,2.57,0,0,1-.66-.45,2.21,2.21,0,0,1-.47-.7,2.75,2.75,0,0,1-.17-1,2.45,2.45,0,0,1,.19-1,2.53,2.53,0,0,1,.57-.82,2.76,2.76,0,0,1,.92-.57,3.19,3.19,0,0,1,1.24-.22,4.07,4.07,0,0,1,1.46.25,3.15,3.15,0,0,1,1.13.69Z" style="fill:#f04f53"></path><path d="M96.32,43.4v4a1.34,1.34,0,0,0,.27.9,1,1,0,0,0,.81.32,1.59,1.59,0,0,0,.74-.18,2.23,2.23,0,0,0,.65-.48V43.4h1.53v6.33h-.93a.37.37,0,0,1-.39-.27L98.89,49a4.59,4.59,0,0,1-.41.36,2.52,2.52,0,0,1-.44.28,2.65,2.65,0,0,1-.52.18,2.74,2.74,0,0,1-.59.06,2.34,2.34,0,0,1-.91-.17,1.87,1.87,0,0,1-.67-.5,2.07,2.07,0,0,1-.41-.76,3.06,3.06,0,0,1-.14-1v-4Z" style="fill:#f04f53"></path><path d="M106.64,44.74l-.13.13a.36.36,0,0,1-.19.05.39.39,0,0,1-.23-.07l-.27-.16a2,2,0,0,0-.36-.16,1.66,1.66,0,0,0-.53-.07,1.76,1.76,0,0,0-.71.14,1.36,1.36,0,0,0-.5.42,2,2,0,0,0-.3.66,3.85,3.85,0,0,0-.1.87,3.46,3.46,0,0,0,.11.9,2,2,0,0,0,.31.67,1.41,1.41,0,0,0,.5.41,1.51,1.51,0,0,0,.65.14,1.63,1.63,0,0,0,.59-.09,1.91,1.91,0,0,0,.38-.2l.27-.2a.41.41,0,0,1,.26-.09.31.31,0,0,1,.27.14l.44.56a2.86,2.86,0,0,1-.55.5,3,3,0,0,1-.61.32,3.55,3.55,0,0,1-.66.17,5.16,5.16,0,0,1-.67,0,3,3,0,0,1-1.11-.22,2.6,2.6,0,0,1-.9-.64,3,3,0,0,1-.62-1,4,4,0,0,1-.22-1.39,4.15,4.15,0,0,1,.2-1.29,2.79,2.79,0,0,1,1.55-1.72,3.47,3.47,0,0,1,1.33-.24,2.86,2.86,0,0,1,2.2.88Z" style="fill:#f04f53"></path><path d="M112.77,44.74a1.58,1.58,0,0,1-.13.13.36.36,0,0,1-.19.05.39.39,0,0,1-.23-.07l-.27-.16a2,2,0,0,0-.36-.16,1.66,1.66,0,0,0-.53-.07,1.73,1.73,0,0,0-.71.14,1.36,1.36,0,0,0-.5.42,1.82,1.82,0,0,0-.3.66,3.35,3.35,0,0,0-.1.87,3.46,3.46,0,0,0,.11.9,1.81,1.81,0,0,0,.31.67,1.47,1.47,0,0,0,.49.41,1.59,1.59,0,0,0,.66.14,1.63,1.63,0,0,0,.59-.09,1.91,1.91,0,0,0,.38-.2l.27-.2a.38.38,0,0,1,.25-.09.31.31,0,0,1,.28.14l.44.56a2.86,2.86,0,0,1-.55.5,3.24,3.24,0,0,1-.61.32,3.76,3.76,0,0,1-.66.17,5.16,5.16,0,0,1-.67,0,2.93,2.93,0,0,1-1.11-.22,2.64,2.64,0,0,1-.91-.64,3.16,3.16,0,0,1-.61-1,4,4,0,0,1-.22-1.39,3.88,3.88,0,0,1,.2-1.29,2.79,2.79,0,0,1,1.55-1.72A3.41,3.41,0,0,1,111,43.3a3.21,3.21,0,0,1,1.25.22,3.29,3.29,0,0,1,1,.66Z" style="fill:#f04f53"></path><path d="M117.06,43.3a3,3,0,0,1,1.1.19A2.44,2.44,0,0,1,119.6,45a3.32,3.32,0,0,1,.21,1.22,2.33,2.33,0,0,1,0,.29.48.48,0,0,1-.06.18.22.22,0,0,1-.1.09.48.48,0,0,1-.18,0h-3.91a2.18,2.18,0,0,0,.52,1.43,1.67,1.67,0,0,0,1.21.46,2,2,0,0,0,.64-.09,3.05,3.05,0,0,0,.47-.19l.35-.19a.58.58,0,0,1,.3-.09.29.29,0,0,1,.16,0,.35.35,0,0,1,.11.1l.45.56a2.69,2.69,0,0,1-.57.5,3.35,3.35,0,0,1-.66.32,4.2,4.2,0,0,1-.7.17,5.31,5.31,0,0,1-.68,0,3.49,3.49,0,0,1-1.23-.22,2.89,2.89,0,0,1-1-.65,3.08,3.08,0,0,1-.66-1.06,4.2,4.2,0,0,1-.24-1.47,3.51,3.51,0,0,1,.21-1.22,3.07,3.07,0,0,1,.6-1,2.9,2.9,0,0,1,1-.67A3.2,3.2,0,0,1,117.06,43.3Zm0,1.09a1.41,1.41,0,0,0-1,.38,1.84,1.84,0,0,0-.48,1.07h2.86a1.69,1.69,0,0,0-.08-.56,1.19,1.19,0,0,0-.24-.46,1.21,1.21,0,0,0-.42-.32A1.57,1.57,0,0,0,117.09,44.39Z" style="fill:#f04f53"></path><path d="M125,44.63a.36.36,0,0,1-.13.14.29.29,0,0,1-.17,0,.6.6,0,0,1-.24-.06l-.29-.14a2.77,2.77,0,0,0-.38-.14,1.85,1.85,0,0,0-.5-.06,1.13,1.13,0,0,0-.71.19.58.58,0,0,0-.26.5.45.45,0,0,0,.13.34,1,1,0,0,0,.35.25,4,4,0,0,0,.5.19l.57.18c.19.06.38.14.57.22a2.44,2.44,0,0,1,.49.32,1.35,1.35,0,0,1,.35.47,1.46,1.46,0,0,1,.14.66,2.14,2.14,0,0,1-.17.84,1.79,1.79,0,0,1-.49.67,2.5,2.5,0,0,1-.79.44,3.64,3.64,0,0,1-1.09.15,3.47,3.47,0,0,1-.64-.06,4,4,0,0,1-.59-.16,3,3,0,0,1-.54-.25,1.9,1.9,0,0,1-.42-.31l.35-.58a.49.49,0,0,1,.16-.16.52.52,0,0,1,.23-.05.43.43,0,0,1,.27.08l.29.17a3,3,0,0,0,.4.17,1.57,1.57,0,0,0,.57.08,1.63,1.63,0,0,0,.47-.06,1,1,0,0,0,.32-.17.64.64,0,0,0,.18-.25A.67.67,0,0,0,124,48a.52.52,0,0,0-.13-.37,1.35,1.35,0,0,0-.35-.24,3.25,3.25,0,0,0-.5-.19l-.58-.18a4.87,4.87,0,0,1-.57-.24,2,2,0,0,1-.5-.33A1.64,1.64,0,0,1,121,46a1.75,1.75,0,0,1-.13-.72,1.76,1.76,0,0,1,.61-1.36,2.45,2.45,0,0,1,.75-.42,3.54,3.54,0,0,1,2.22.06,2.89,2.89,0,0,1,.9.57Z" style="fill:#f04f53"></path><path d="M130.68,44.63a.45.45,0,0,1-.13.14.33.33,0,0,1-.17,0,.53.53,0,0,1-.24-.06l-.3-.14a2.35,2.35,0,0,0-.38-.14,1.85,1.85,0,0,0-.5-.06,1.15,1.15,0,0,0-.71.19.6.6,0,0,0-.26.5.45.45,0,0,0,.13.34,1.1,1.1,0,0,0,.36.25,3.87,3.87,0,0,0,.49.19q.28.07.57.18c.19.06.38.14.57.22a2.84,2.84,0,0,1,.5.32,1.65,1.65,0,0,1,.35.47,1.47,1.47,0,0,1,.13.66,2.13,2.13,0,0,1-.16.84,2,2,0,0,1-.49.67,2.55,2.55,0,0,1-.8.44,3.52,3.52,0,0,1-1.08.15,3.39,3.39,0,0,1-.64-.06,3.77,3.77,0,0,1-.6-.16,2.87,2.87,0,0,1-.53-.25,2,2,0,0,1-.43-.31l.35-.58a.61.61,0,0,1,.16-.16.54.54,0,0,1,.24-.05.47.47,0,0,1,.27.08l.29.17a2.4,2.4,0,0,0,.39.17,1.57,1.57,0,0,0,.57.08,1.63,1.63,0,0,0,.47-.06.88.88,0,0,0,.32-.17.58.58,0,0,0,.19-.25.66.66,0,0,0,0-.28.52.52,0,0,0-.13-.37,1.19,1.19,0,0,0-.35-.24,2.9,2.9,0,0,0-.5-.19l-.57-.18a5.89,5.89,0,0,1-.58-.24,2.17,2.17,0,0,1-.5-.33,1.61,1.61,0,0,1-.35-.5,1.74,1.74,0,0,1-.14-.72,1.86,1.86,0,0,1,.16-.74,1.71,1.71,0,0,1,.45-.62,2.45,2.45,0,0,1,.75-.42,3.57,3.57,0,0,1,2.23.06,2.84,2.84,0,0,1,.89.57Z" style="fill:#f04f53"></path></g></g><path d="M15.58,17.76H6.35v3.53h8.49v5.65H6.35v4.4h9.56V37H0V12H15.58Z" style="fill:#643695"></path><path d="M31.86,29.17,27.08,37H20.42V36l8-12.26L21.27,13V12H27.8l4.06,6.48H32l4.15-6.4h6.42v1l-7.2,10.77L43.5,36.09v1H36.8l-4.75-7.84Z" style="fill:#643695"></path><path d="M48.92,37V12h11c12,0,12,18.57,0,18.57h-4.6V37Zm11-19.25H55.35v7.18h4.57c3.44,0,3.66-7.14-.05-7.18Z" style="fill:#643695"></path><path d="M88.19,33.88H78.32L76.86,37H70.62v-.92L81.85,11.74h2.74L95.86,36.09V37H89.62Zm-5-12-2.8,6.54h5.7Z" style="fill:#643695"></path><path d="M107.5,24.75V37h-6.59V11.94h2.28l12.62,12.33V12.06h6.53v25h-2.25Z" style="fill:#643695"></path><path d="M139.89,37h-9.41V12h9.41C156.19,12.13,156.19,36.94,139.89,37Zm-3-5.81h3c8,0,8-13.33,0-13.33h-3Z" style="fill:#643695"></path><path d="M172.19,28.6V12.06h6.1V28.71c0,5.49-4.74,8.66-9.88,8.66s-9.91-3.17-9.91-8.66V12.06h6.1V28.6c0,2,2,3,3.81,3S172.19,30.63,172.19,28.6Z" style="fill:#643695"></path><path d="M198.44,29.67c0-1.75-2.07-2.14-4.56-2.28-5.42-.4-9-2.25-9.06-7.67C184.6,9,204,9,203.82,19.72h-6.06c0-3.32-6.71-3-6.92-.07-.14,1.89,1.71,2.28,4,2.53,4.95.54,9.8,1.29,9.8,7.52,0,10.49-20.32,10.66-20.18-.32h6.17C190.63,32.56,198.44,32.59,198.44,29.67Z" style="fill:#643695"></path><polygon points="215.38 0.04 215.38 18.5 209.05 18.5 209.05 6.38 196.94 6.38 196.94 0.04 215.38 0.04" style="fill:#f04e53"></polygon><g style="isolation:isolate"><path d="M222,0V.84h-1.66V5.51h-1V.84h-1.67V0Z" style="fill:#5c5c5c"></path><path d="M225.54,3.48l.11.26.11-.27.12-.25L227.52.16a.35.35,0,0,1,.06-.09.18.18,0,0,1,.07,0l.09,0h.89V5.51h-.9V2a1.77,1.77,0,0,1,0-.22,2.09,2.09,0,0,1,0-.24l-1.66,3.13a.5.5,0,0,1-.15.17.38.38,0,0,1-.22.06h-.14a.37.37,0,0,1-.21-.06.5.5,0,0,1-.15-.17l-1.69-3.14a2.29,2.29,0,0,1,0,.25,1.7,1.7,0,0,1,0,.22V5.51h-.91V0h.9l.09,0,.07.05a.2.2,0,0,1,.06.09l1.65,3.07A1.15,1.15,0,0,1,225.54,3.48Z" style="fill:#5c5c5c"></path></g></g></g></svg>