<svg width="353" height="308" viewBox="0 0 353 308" fill="none" xmlns="http://www.w3.org/2000/svg">
<g clip-path="url(#clip0_10_58)">
<path d="M93.4604 58.5782L203.493 58.5596" stroke="white" stroke-opacity="0.4" stroke-linecap="round" stroke-linejoin="round"/>
<path d="M203.493 58.5597L258.493 153.822" stroke="white" stroke-opacity="0.4" stroke-linecap="round" stroke-linejoin="round"/>
<path d="M258.493 153.822L203.46 249.104" stroke="white" stroke-opacity="0.4" stroke-linecap="round" stroke-linejoin="round"/>
<path d="M203.46 249.104L93.4282 249.122" stroke="white" stroke-opacity="0.4" stroke-linecap="round" stroke-linejoin="round"/>
<path d="M93.4282 249.122L38.4282 153.86" stroke="white" stroke-opacity="0.4" stroke-linecap="round" stroke-linejoin="round"/>
<path d="M38.4282 153.86L93.4604 58.5783" stroke="white" stroke-opacity="0.4" stroke-linecap="round" stroke-linejoin="round"/>
<path d="M120.96 106.21L175.933 106.225" stroke="white" stroke-opacity="0.4" stroke-linecap="round" stroke-linejoin="round"/>
<path d="M175.933 106.225L203.433 153.857" stroke="white" stroke-opacity="0.4" stroke-linecap="round" stroke-linejoin="round"/>
<path d="M203.433 153.857L175.96 201.472" stroke="white" stroke-opacity="0.4" stroke-linecap="round" stroke-linejoin="round"/>
<path d="M175.96 201.472L120.988 201.457" stroke="white" stroke-opacity="0.4" stroke-linecap="round" stroke-linejoin="round"/>
<path d="M120.988 201.457L93.4876 153.825" stroke="white" stroke-opacity="0.4" stroke-linecap="round" stroke-linejoin="round"/>
<path d="M93.4876 153.825L120.96 106.21" stroke="white" stroke-opacity="0.4" stroke-linecap="round" stroke-linejoin="round"/>
<path d="M93.4604 58.5782L120.96 106.21" stroke="white" stroke-opacity="0.4" stroke-linecap="round" stroke-linejoin="round"/>
<path d="M203.493 58.5597L175.933 106.225" stroke="white" stroke-opacity="0.4" stroke-linecap="round" stroke-linejoin="round"/>
<path d="M258.493 153.807L203.433 153.841" stroke="#ED5D53" stroke-opacity="0.4" stroke-linecap="round" stroke-linejoin="round" stroke-dasharray="4 4"/>
<path d="M203.46 249.104L175.96 201.472" stroke="white" stroke-opacity="0.4" stroke-linecap="round" stroke-linejoin="round"/>
<path d="M93.4282 249.122L120.988 201.457" stroke="white" stroke-opacity="0.4" stroke-linecap="round" stroke-linejoin="round"/>
<path d="M38.4282 153.86L93.4876 153.825" stroke="white" stroke-opacity="0.4" stroke-linecap="round" stroke-linejoin="round"/>
<path d="M93.4604 58.5782L175.933 106.225" stroke="white" stroke-opacity="0.4" stroke-linecap="round" stroke-linejoin="round"/>
<path d="M93.4604 58.5783L93.4876 153.825" stroke="white" stroke-opacity="0.4" stroke-linecap="round" stroke-linejoin="round"/>
<path d="M203.493 58.5597L120.96 106.21" stroke="white" stroke-opacity="0.4" stroke-linecap="round" stroke-linejoin="round"/>
<path d="M203.493 58.5597L203.433 153.857" stroke="white" stroke-opacity="0.4" stroke-linecap="round" stroke-linejoin="round"/>
<path d="M258.493 153.822L175.933 106.225" stroke="white" stroke-opacity="0.4" stroke-linecap="round" stroke-linejoin="round"/>
<path d="M258.493 153.822L175.96 201.472" stroke="white" stroke-opacity="0.4" stroke-linecap="round" stroke-linejoin="round"/>
<path d="M203.46 249.104L203.433 153.857" stroke="white" stroke-opacity="0.4" stroke-linecap="round" stroke-linejoin="round"/>
<path d="M203.46 249.104L120.988 201.457" stroke="white" stroke-opacity="0.4" stroke-linecap="round" stroke-linejoin="round"/>
<path d="M93.4282 249.122L175.96 201.472" stroke="white" stroke-opacity="0.4" stroke-linecap="round" stroke-linejoin="round"/>
<path d="M93.4282 249.123L93.4876 153.825" stroke="white" stroke-opacity="0.4" stroke-linecap="round" stroke-linejoin="round"/>
<path d="M38.4282 153.86L120.988 201.457" stroke="white" stroke-opacity="0.4" stroke-linecap="round" stroke-linejoin="round"/>
<path d="M38.4282 153.86L120.96 106.21" stroke="white" stroke-opacity="0.4" stroke-linecap="round" stroke-linejoin="round"/>
<path opacity="0.15" d="M157.46 169.018C166.07 164.047 169.019 153.039 164.049 144.429C159.078 135.82 148.07 132.87 139.46 137.841C130.851 142.812 127.901 153.82 132.872 162.429C137.843 171.039 148.851 173.988 157.46 169.018Z" fill="#F05C55"/>
<path opacity="0.5" d="M153.46 162.501C158.243 159.74 159.882 153.624 157.121 148.841C154.359 144.058 148.243 142.419 143.46 145.181C138.677 147.942 137.039 154.058 139.8 158.841C142.562 163.624 148.677 165.263 153.46 162.501Z" fill="#F05C55"/>
<path d="M97.4604 65.5064C101.287 63.2973 102.598 58.4046 100.389 54.5782C98.1795 50.7519 93.2867 49.4409 89.4604 51.65C85.6341 53.8592 84.3231 58.7519 86.5322 62.5782C88.7413 66.4046 93.6341 67.7156 97.4604 65.5064Z" fill="white"/>
<path d="M207.493 65.4879C211.319 63.2787 212.63 58.386 210.421 54.5597C208.212 50.7333 203.319 49.4223 199.493 51.6315C195.666 53.8406 194.355 58.7333 196.564 62.5597C198.774 66.386 203.666 67.697 207.493 65.4879Z" fill="white"/>
<path d="M262.493 160.751C266.319 158.541 267.63 153.649 265.421 149.822C263.212 145.996 258.319 144.685 254.493 146.894C250.666 149.103 249.355 153.996 251.564 157.822C253.774 161.649 258.666 162.96 262.493 160.751Z" fill="#ED5D53"/>
<path d="M207.46 256.032C211.287 253.823 212.598 248.93 210.389 245.104C208.179 241.278 203.287 239.967 199.46 242.176C195.634 244.385 194.323 249.278 196.532 253.104C198.741 256.93 203.634 258.241 207.46 256.032Z" fill="white"/>
<path d="M97.4282 256.051C101.255 253.841 102.566 248.949 100.356 245.122C98.1473 241.296 93.2545 239.985 89.4282 242.194C85.6019 244.403 84.2909 249.296 86.5 253.122C88.7091 256.949 93.6019 258.26 97.4282 256.051Z" fill="white"/>
<path d="M42.4282 160.788C46.2545 158.579 47.5655 153.686 45.3564 149.86C43.1473 146.033 38.2545 144.722 34.4282 146.931C30.6019 149.141 29.2909 154.033 31.5 157.86C33.7091 161.686 38.6019 162.997 42.4282 160.788Z" fill="white"/>
<path d="M124.96 113.138C128.787 110.929 130.098 106.036 127.889 102.21C125.679 98.3834 120.787 97.0724 116.96 99.2815C113.134 101.491 111.823 106.383 114.032 110.21C116.241 114.036 121.134 115.347 124.96 113.138Z" fill="white"/>
<path d="M179.933 113.154C183.76 110.944 185.071 106.052 182.861 102.225C180.652 98.399 175.76 97.088 171.933 99.2971C168.107 101.506 166.796 106.399 169.005 110.225C171.214 114.052 176.107 115.363 179.933 113.154Z" fill="white"/>
<path d="M207.433 160.785C211.26 158.576 212.571 153.683 210.361 149.857C208.152 146.03 203.26 144.719 199.433 146.929C195.607 149.138 194.296 154.03 196.505 157.857C198.714 161.683 203.607 162.994 207.433 160.785Z" fill="#ED5D53"/>
<path d="M179.96 208.401C183.787 206.191 185.098 201.299 182.889 197.472C180.679 193.646 175.787 192.335 171.96 194.544C168.134 196.753 166.823 201.646 169.032 205.472C171.241 209.299 176.134 210.61 179.96 208.401Z" fill="white"/>
<path d="M124.988 208.385C128.814 206.176 130.125 201.283 127.916 197.457C125.707 193.63 120.814 192.319 116.988 194.529C113.161 196.738 111.85 201.63 114.059 205.457C116.269 209.283 121.161 210.594 124.988 208.385Z" fill="white"/>
<path d="M97.4876 160.754C101.314 158.544 102.625 153.652 100.416 149.825C98.2067 145.999 93.314 144.688 89.4876 146.897C85.6613 149.106 84.3503 153.999 86.5594 157.825C88.7686 161.652 93.6613 162.963 97.4876 160.754Z" fill="white"/>
<path d="M334.96 171.841C344.902 171.841 352.96 163.782 352.96 153.841C352.96 143.9 344.902 135.841 334.96 135.841C325.019 135.841 316.96 143.9 316.96 153.841C316.96 163.782 325.019 171.841 334.96 171.841Z" fill="#ED5D53"/>
<line x1="253.96" y1="154.341" x2="312.96" y2="154.341" stroke="#ED5D53" stroke-opacity="0.4" stroke-linecap="round" stroke-dasharray="4 4"/>
</g>
<defs>
<clipPath id="clip0_10_58">
<rect width="352.96" height="307.682" fill="white"/>
</clipPath>
</defs>
</svg>
