<svg width="72" height="72" viewBox="0 0 72 72" fill="none" xmlns="http://www.w3.org/2000/svg">
<path d="M30 21C35.5228 21 40 16.5228 40 11C40 5.4772 35.5228 1 30 1C24.4772 1 20 5.4772 20 11C20 16.5228 24.4772 21 30 21Z" fill="#4F81BD"/>
<path d="M47 25C52.5228 25 57 20.5228 57 15C57 9.4772 52.5228 5 47 5C41.4772 5 37 9.4772 37 15C37 20.5228 41.4772 25 47 25Z" fill="#4F81BD"/>
<path d="M19 35C24.5228 35 29 30.5228 29 25C29 19.4772 24.5228 15 19 15C13.4772 15 9 19.4772 9 25C9 30.5228 13.4772 35 19 35Z" fill="#4F81BD"/>
<path d="M53 42C58.5228 42 63 37.5228 63 32C63 26.4772 58.5228 22 53 22C47.4772 22 43 26.4772 43 32C43 37.5228 47.4772 42 53 42Z" fill="#4F81BD"/>
<path d="M26 52C31.5228 52 36 47.5228 36 42C36 36.4772 31.5228 32 26 32C20.4772 32 16 36.4772 16 42C16 47.5228 20.4772 52 26 52Z" fill="#4F81BD"/>
<path d="M43 55C48.5228 55 53 50.5228 53 45C53 39.4772 48.5228 35 43 35C37.4772 35 33 39.4772 33 45C33 50.5228 37.4772 55 43 55Z" fill="#4F81BD"/>
<path d="M36 37C40.9706 37 45 32.9706 45 28C45 23.0294 40.9706 19 36 19C31.0294 19 27 23.0294 27 28C27 32.9706 31.0294 37 36 37Z" fill="#C00000"/>
</svg>
