<svg width="72" height="72" viewBox="0 0 72 72" fill="none" xmlns="http://www.w3.org/2000/svg">
<path d="M30 29C35.5228 29 40 24.5228 40 19C40 13.4772 35.5228 9 30 9C24.4772 9 20 13.4772 20 19C20 24.5228 24.4772 29 30 29Z" fill="#4F81BD"/>
<path d="M47 33C52.5228 33 57 28.5228 57 23C57 17.4772 52.5228 13 47 13C41.4772 13 37 17.4772 37 23C37 28.5228 41.4772 33 47 33Z" fill="#4F81BD"/>
<path d="M19 43C24.5228 43 29 38.5228 29 33C29 27.4772 24.5228 23 19 23C13.4772 23 9 27.4772 9 33C9 38.5228 13.4772 43 19 43Z" fill="#4F81BD"/>
<path d="M53 50C58.5228 50 63 45.5228 63 40C63 34.4772 58.5228 30 53 30C47.4772 30 43 34.4772 43 40C43 45.5228 47.4772 50 53 50Z" fill="#4F81BD"/>
<path d="M26 60C31.5228 60 36 55.5228 36 50C36 44.4772 31.5228 40 26 40C20.4772 40 16 44.4772 16 50C16 55.5228 20.4772 60 26 60Z" fill="#4F81BD"/>
<path d="M43 63C48.5228 63 53 58.5228 53 53C53 47.4772 48.5228 43 43 43C37.4772 43 33 47.4772 33 53C33 58.5228 37.4772 63 43 63Z" fill="#4F81BD"/>
<path d="M36 45C40.9706 45 45 40.9706 45 36C45 31.0294 40.9706 27 36 27C31.0294 27 27 31.0294 27 36C27 40.9706 31.0294 45 36 45Z" fill="#C00000"/>
</svg>
