<svg width="78" height="78" viewBox="0 0 78 78" fill="none" xmlns="http://www.w3.org/2000/svg">
<path d="M39 29L25 8" stroke="#5C718A" stroke-width="4" stroke-linecap="round"/>
<path d="M39 29L53 8" stroke="#5C718A" stroke-width="4" stroke-linecap="round"/>
<path d="M39 29H12" stroke="#5C718A" stroke-width="4" stroke-linecap="round"/>
<path d="M39 29H66" stroke="#5C718A" stroke-width="4" stroke-linecap="round"/>
<path d="M39 29L25 50" stroke="#5C718A" stroke-width="4" stroke-linecap="round"/>
<path d="M39 29L53 50" stroke="#5C718A" stroke-width="4" stroke-linecap="round"/>
<path d="M25 16C29.4183 16 33 12.4183 33 8C33 3.58172 29.4183 0 25 0C20.5817 0 17 3.58172 17 8C17 12.4183 20.5817 16 25 16Z" fill="#4F81BD"/>
<path d="M53 16C57.4183 16 61 12.4183 61 8C61 3.58172 57.4183 0 53 0C48.5817 0 45 3.58172 45 8C45 12.4183 48.5817 16 53 16Z" fill="#4F81BD"/>
<path d="M12 37C16.4183 37 20 33.4183 20 29C20 24.5817 16.4183 21 12 21C7.58172 21 4 24.5817 4 29C4 33.4183 7.58172 37 12 37Z" fill="#4F81BD"/>
<path d="M66 37C70.4183 37 74 33.4183 74 29C74 24.5817 70.4183 21 66 21C61.5817 21 58 24.5817 58 29C58 33.4183 61.5817 37 66 37Z" fill="#4F81BD"/>
<path d="M25 58C29.4183 58 33 54.4183 33 50C33 45.5817 29.4183 42 25 42C20.5817 42 17 45.5817 17 50C17 54.4183 20.5817 58 25 58Z" fill="#4F81BD"/>
<path d="M53 58C57.4183 58 61 54.4183 61 50C61 45.5817 57.4183 42 53 42C48.5817 42 45 45.5817 45 50C45 54.4183 48.5817 58 53 58Z" fill="#4F81BD"/>
<path d="M39 38C43.9706 38 48 33.9706 48 29C48 24.0294 43.9706 20 39 20C34.0294 20 30 24.0294 30 29C30 33.9706 34.0294 38 39 38Z" fill="#C00000"/>
</svg>
