<svg width="72" height="72" viewBox="0 0 72 72" fill="none" xmlns="http://www.w3.org/2000/svg">
<path d="M30 20C35.5228 20 40 15.5228 40 10C40 4.4772 35.5228 0 30 0C24.4772 0 20 4.4772 20 10C20 15.5228 24.4772 20 30 20Z" fill="#4F81BD"/>
<path d="M47 24C52.5228 24 57 19.5228 57 14C57 8.4772 52.5228 4 47 4C41.4772 4 37 8.4772 37 14C37 19.5228 41.4772 24 47 24Z" fill="#4F81BD"/>
<path d="M19 34C24.5228 34 29 29.5228 29 24C29 18.4772 24.5228 14 19 14C13.4772 14 9 18.4772 9 24C9 29.5228 13.4772 34 19 34Z" fill="#4F81BD"/>
<path d="M53 41C58.5228 41 63 36.5228 63 31C63 25.4772 58.5228 21 53 21C47.4772 21 43 25.4772 43 31C43 36.5228 47.4772 41 53 41Z" fill="#4F81BD"/>
<path d="M26 51C31.5228 51 36 46.5228 36 41C36 35.4772 31.5228 31 26 31C20.4772 31 16 35.4772 16 41C16 46.5228 20.4772 51 26 51Z" fill="#4F81BD"/>
<path d="M43 54C48.5228 54 53 49.5228 53 44C53 38.4772 48.5228 34 43 34C37.4772 34 33 38.4772 33 44C33 49.5228 37.4772 54 43 54Z" fill="#4F81BD"/>
<path d="M36 36C40.9706 36 45 31.9706 45 27C45 22.0294 40.9706 18 36 18C31.0294 18 27 22.0294 27 27C27 31.9706 31.0294 36 36 36Z" fill="#C00000"/>
</svg>
