<svg width="78" height="78" viewBox="0 0 78 78" fill="none" xmlns="http://www.w3.org/2000/svg">
<path d="M25 9H53L66 30L53 51H25L12 30L25 9Z" stroke="#5C718A" stroke-width="4" stroke-linecap="round" stroke-linejoin="round"/>
<path d="M25 17C29.4183 17 33 13.4183 33 9C33 4.58172 29.4183 1 25 1C20.5817 1 17 4.58172 17 9C17 13.4183 20.5817 17 25 17Z" fill="#4F81BD"/>
<path d="M53 17C57.4183 17 61 13.4183 61 9C61 4.58172 57.4183 1 53 1C48.5817 1 45 4.58172 45 9C45 13.4183 48.5817 17 53 17Z" fill="#C00000"/>
<path d="M66 38C70.4183 38 74 34.4183 74 30C74 25.5817 70.4183 22 66 22C61.5817 22 58 25.5817 58 30C58 34.4183 61.5817 38 66 38Z" fill="#4F81BD"/>
<path d="M53 59C57.4183 59 61 55.4183 61 51C61 46.5817 57.4183 43 53 43C48.5817 43 45 46.5817 45 51C45 55.4183 48.5817 59 53 59Z" fill="#4F81BD"/>
<path d="M25 59C29.4183 59 33 55.4183 33 51C33 46.5817 29.4183 43 25 43C20.5817 43 17 46.5817 17 51C17 55.4183 20.5817 59 25 59Z" fill="#4F81BD"/>
<path d="M12 38C16.4183 38 20 34.4183 20 30C20 25.5817 16.4183 22 12 22C7.58172 22 4 25.5817 4 30C4 34.4183 7.58172 38 12 38Z" fill="#4F81BD"/>
</svg>
